<svg width="233" height="40" viewBox="0 0 233 40" fill="none" xmlns="http://www.w3.org/2000/svg">
<path d="M66.9982 24.6214V28H54.7644C54.449 28 54.1113 27.963 53.7514 27.889C53.3915 27.8151 53.0353 27.7004 52.6828 27.5451C52.3303 27.3897 51.9926 27.1882 51.6698 26.9404C51.3507 26.6926 51.0668 26.393 50.8182 26.0416C50.5696 25.6902 50.3711 25.2834 50.2226 24.8211C50.0742 24.3588 50 23.8373 50 23.2566V14.1026C50 13.7883 50.0371 13.4517 50.1113 13.0929C50.1855 12.7342 50.3006 12.3791 50.4564 12.0277C50.616 11.6764 50.8219 11.3398 51.0742 11.018C51.3265 10.6963 51.6271 10.4133 51.9759 10.1692C52.3284 9.92141 52.7366 9.72353 53.2004 9.57559C53.6605 9.42765 54.1818 9.35367 54.7644 9.35367H66.9982V12.7323H54.7644C54.3191 12.7323 53.9796 12.8507 53.7458 13.0874C53.5121 13.3204 53.3952 13.6662 53.3952 14.1248V23.2566C53.3952 23.6893 53.5139 24.024 53.7514 24.2607C53.9926 24.5012 54.3303 24.6214 54.7644 24.6214H66.9982ZM85.0011 18.6796V23.2566C85.0011 23.8373 84.9269 24.3588 84.7785 24.8211C84.6338 25.2834 84.439 25.6902 84.1941 26.0416C83.9492 26.393 83.6672 26.6926 83.3481 26.9404C83.0252 27.1882 82.6876 27.3897 82.3351 27.5451C81.9826 27.7004 81.6264 27.8151 81.2664 27.889C80.9028 27.963 80.5614 28 80.2423 28H74.1254C73.6541 28 73.1402 27.9168 72.5836 27.7503C72.027 27.5876 71.5113 27.3176 71.0363 26.9404C70.5613 26.5631 70.1662 26.073 69.8508 25.4702C69.5317 24.8673 69.3721 24.1294 69.3721 23.2566V18.6796C69.3721 17.8104 69.5317 17.0744 69.8508 16.4716C70.1662 15.8687 70.5613 15.3786 71.0363 15.0014C71.5113 14.6241 72.027 14.3541 72.5836 14.1914C73.1402 14.025 73.6541 13.9417 74.1254 13.9417H80.2423C81.1106 13.9417 81.849 14.0989 82.4575 14.4133C83.0661 14.724 83.5577 15.116 83.9325 15.5895C84.3073 16.0629 84.5781 16.577 84.7451 17.1318C84.9158 17.6865 85.0011 18.2025 85.0011 18.6796ZM81.6115 23.2566V18.7018C81.6115 18.2358 81.4946 17.89 81.2609 17.6644C81.0234 17.4387 80.6839 17.3259 80.2423 17.3259H74.1476C73.6949 17.3259 73.3517 17.4406 73.118 17.6699C72.8842 17.8992 72.7673 18.2358 72.7673 18.6796V23.2566C72.7673 23.6967 72.8842 24.0333 73.118 24.2663C73.3517 24.503 73.6949 24.6214 74.1476 24.6214H80.2423C80.7024 24.6214 81.0456 24.503 81.272 24.2663C81.4983 24.0333 81.6115 23.6967 81.6115 23.2566ZM103.359 8V23.2566C103.359 23.8373 103.284 24.3588 103.136 24.8211C102.988 25.2834 102.791 25.6902 102.546 26.0416C102.305 26.393 102.023 26.6926 101.7 26.9404C101.377 27.1882 101.039 27.3897 100.687 27.5451C100.334 27.7004 99.9782 27.8151 99.6183 27.889C99.2584 27.963 98.917 28 98.5942 28H92.4773C91.8947 28 91.3734 27.926 90.9132 27.7781C90.4494 27.6301 90.0431 27.4341 89.6943 27.19C89.3418 26.9422 89.0412 26.6574 88.7926 26.3356C88.544 26.0139 88.3418 25.6773 88.1859 25.3259C88.0301 24.9746 87.9151 24.6195 87.8409 24.2607C87.7667 23.902 87.7295 23.5673 87.7295 23.2566V18.6796C87.7295 17.8104 87.8872 17.0744 88.2026 16.4716C88.5218 15.8687 88.9188 15.3786 89.3937 15.0014C89.865 14.6241 90.3789 14.3541 90.9355 14.1914C91.4921 14.025 92.006 13.9417 92.4773 13.9417H98.5942V17.3259H92.5051C92.0524 17.3259 91.7073 17.4406 91.4698 17.6699C91.2361 17.8992 91.1192 18.2358 91.1192 18.6796V23.2288C91.1192 23.6875 91.2342 24.0333 91.4643 24.2663C91.6943 24.503 92.032 24.6214 92.4773 24.6214H98.5942C99.0543 24.6214 99.3975 24.503 99.6239 24.2663C99.8502 24.0333 99.9634 23.6967 99.9634 23.2566V8H103.359ZM121.764 18.5964C121.764 19.0661 121.681 19.5728 121.514 20.1165C121.351 20.6565 121.084 21.1577 120.712 21.62C120.341 22.086 119.859 22.4743 119.265 22.785C118.668 23.0994 117.944 23.2566 117.095 23.2566H110.972V20.0444H117.095C117.555 20.0444 117.911 19.902 118.163 19.6172C118.416 19.3361 118.542 18.9884 118.542 18.5742C118.542 18.1304 118.401 17.7827 118.119 17.5312C117.833 17.2797 117.492 17.154 117.095 17.154H110.972C110.512 17.154 110.156 17.2945 109.904 17.5756C109.651 17.8604 109.525 18.2099 109.525 18.6241V23.3454C109.525 23.7966 109.666 24.1479 109.948 24.3994C110.234 24.6509 110.584 24.7767 111 24.7767H117.095V28H110.972C110.505 28 109.998 27.9168 109.453 27.7503C108.911 27.5876 108.408 27.3213 107.944 26.9515C107.477 26.5853 107.087 26.1045 106.775 25.509C106.46 24.9172 106.302 24.196 106.302 23.3454V18.5964C106.302 18.1304 106.386 17.6255 106.553 17.0818C106.716 16.5418 106.983 16.0407 107.354 15.5784C107.725 15.1123 108.208 14.724 108.801 14.4133C109.399 14.0989 110.122 13.9417 110.972 13.9417H117.095C117.562 13.9417 118.069 14.025 118.614 14.1914C119.156 14.3541 119.661 14.6204 120.128 14.9903C120.592 15.3601 120.98 15.841 121.291 16.4327C121.607 17.0282 121.764 17.7494 121.764 18.5964ZM146.393 24.6214V28H137.198C136.727 28 136.213 27.9168 135.656 27.7503C135.1 27.5876 134.584 27.3176 134.109 26.9404C133.634 26.5631 133.239 26.073 132.924 25.4702C132.604 24.8673 132.445 24.1294 132.445 23.2566V18.6796C132.445 18.3578 132.482 18.0194 132.556 17.6644C132.63 17.3093 132.745 16.9561 132.901 16.6047C133.061 16.2534 133.263 15.9168 133.508 15.595C133.757 15.2732 134.057 14.9921 134.41 14.7517C134.762 14.5076 135.168 14.3116 135.629 14.1637C136.089 14.0157 136.612 13.9417 137.198 13.9417H146.393V17.3259H137.198C136.753 17.3259 136.415 17.4387 136.185 17.6644C135.955 17.89 135.84 18.2358 135.84 18.7018V23.2566C135.84 23.6967 135.957 24.0333 136.191 24.2663C136.424 24.503 136.768 24.6214 137.22 24.6214H146.393ZM164.876 18.6796V28H161.487V18.6796C161.487 18.2358 161.373 17.8992 161.147 17.6699C160.921 17.4406 160.581 17.3259 160.129 17.3259H154.012V13.9417H160.129C160.451 13.9417 160.791 13.9787 161.147 14.0527C161.503 14.1267 161.858 14.2413 162.21 14.3967C162.563 14.5557 162.898 14.7573 163.218 15.0014C163.54 15.2492 163.824 15.5488 164.069 15.9001C164.31 16.2515 164.505 16.6565 164.654 17.1151C164.802 17.5737 164.876 18.0952 164.876 18.6796ZM152.642 8V28H149.247V8H152.642ZM183.322 18.6796V23.2566C183.322 23.8373 183.247 24.3588 183.099 24.8211C182.954 25.2834 182.759 25.6902 182.515 26.0416C182.27 26.393 181.988 26.6926 181.669 26.9404C181.346 27.1882 181.008 27.3897 180.656 27.5451C180.303 27.7004 179.947 27.8151 179.587 27.889C179.223 27.963 178.882 28 178.563 28H172.446C171.975 28 171.461 27.9168 170.904 27.7503C170.347 27.5876 169.832 27.3176 169.357 26.9404C168.882 26.5631 168.487 26.073 168.171 25.4702C167.852 24.8673 167.693 24.1294 167.693 23.2566V18.6796C167.693 17.8104 167.852 17.0744 168.171 16.4716C168.487 15.8687 168.882 15.3786 169.357 15.0014C169.832 14.6241 170.347 14.3541 170.904 14.1914C171.461 14.025 171.975 13.9417 172.446 13.9417H178.563C179.431 13.9417 180.169 14.0989 180.778 14.4133C181.387 14.724 181.878 15.116 182.253 15.5895C182.628 16.0629 182.899 16.577 183.066 17.1318C183.236 17.6865 183.322 18.2025 183.322 18.6796ZM179.932 23.2566V18.7018C179.932 18.2358 179.815 17.89 179.581 17.6644C179.344 17.4387 179.004 17.3259 178.563 17.3259H172.468C172.015 17.3259 171.672 17.4406 171.438 17.6699C171.205 17.8992 171.088 18.2358 171.088 18.6796V23.2566C171.088 23.6967 171.205 24.0333 171.438 24.2663C171.672 24.503 172.015 24.6214 172.468 24.6214H178.563C179.023 24.6214 179.366 24.503 179.592 24.2663C179.819 24.0333 179.932 23.6967 179.932 23.2566ZM208.252 14.9847C208.39 15.3065 208.427 15.632 208.364 15.9612C208.297 16.2903 208.147 16.5751 207.913 16.8155L200.07 24.6214H208.225V28H195.991C195.642 28 195.326 27.902 195.044 27.706C194.762 27.5136 194.551 27.264 194.41 26.957C194.28 26.6389 194.249 26.3135 194.315 25.9806C194.378 25.644 194.536 25.35 194.788 25.0985L202.592 17.3259H194.438V13.9417H206.699C207.037 13.9417 207.349 14.0342 207.635 14.2191C207.917 14.4004 208.122 14.6556 208.252 14.9847ZM226.37 13.9417V26.2968C226.37 26.5409 226.327 26.7665 226.242 26.9736C226.153 27.1808 226.032 27.3601 225.88 27.5118C225.728 27.6634 225.55 27.7836 225.346 27.8724C225.142 27.9575 224.923 28 224.689 28H217.019C216.6 28 216.155 27.9519 215.683 27.8558C215.208 27.7596 214.741 27.6061 214.281 27.3953C213.817 27.1845 213.37 26.9163 212.939 26.5908C212.509 26.2654 212.134 25.8696 211.815 25.4036C211.492 24.9413 211.233 24.4068 211.036 23.8003C210.839 23.1937 210.741 22.5095 210.741 21.7476V13.9417H214.136V21.7476C214.136 22.1877 214.212 22.5834 214.364 22.9348C214.516 23.2862 214.722 23.5876 214.982 23.8391C215.242 24.0906 215.548 24.2829 215.9 24.4161C216.253 24.5529 216.633 24.6214 217.041 24.6214H222.98V13.9417H226.37ZM233 8V11.0569H229.605V8H233ZM233 13.9417V28H229.605V13.9417H233Z" fill="#00AAA1"/>
<path d="M26.9777 3.48063H18.7848C18.4044 3.48063 18.0957 3.78933 18.0957 4.16969C18.0957 4.55006 18.4044 4.85876 18.7848 4.85876H26.9777C27.3581 4.85876 27.6668 4.55006 27.6668 4.16969C27.6668 3.78933 27.3581 3.48063 26.9777 3.48063Z" fill="#00AAA1" stroke="#00AAA1" stroke-width="0.148712"/>
<path d="M13.1999 3.68252C13.0717 3.55436 12.894 3.48063 12.7127 3.48063C12.5308 3.48063 12.3531 3.55436 12.2249 3.68252C12.0967 3.81069 12.0237 3.98847 12.0237 4.16969C12.0237 4.35092 12.0967 4.5287 12.2249 4.65686C12.3537 4.78503 12.5308 4.85876 12.7127 4.85876C12.894 4.85876 13.0717 4.78503 13.1999 4.65686C13.3281 4.5287 13.4018 4.35092 13.4018 4.16969C13.4018 3.98847 13.3281 3.81069 13.1999 3.68252Z" fill="#00AAA1" stroke="#00AAA1" stroke-width="0.148712"/>
<path d="M10.5794 3.68252C10.4512 3.55436 10.2734 3.48063 10.0922 3.48063C9.91098 3.48063 9.7332 3.55436 9.60503 3.68252C9.47687 3.81069 9.40314 3.98847 9.40314 4.16969C9.40314 4.35092 9.47687 4.5287 9.60503 4.65686C9.7332 4.78503 9.91098 4.85876 10.0922 4.85876C10.2734 4.85876 10.4512 4.78503 10.5794 4.65686C10.7075 4.5287 10.7813 4.35092 10.7813 4.16969C10.7813 3.98847 10.7075 3.81069 10.5794 3.68252Z" fill="#00AAA1" stroke="#00AAA1" stroke-width="0.148712"/>
<path d="M15.8197 3.68252C15.6916 3.55436 15.5138 3.48063 15.3326 3.48063C15.1513 3.48063 14.9736 3.55436 14.8454 3.68252C14.7172 3.81069 14.6435 3.98847 14.6435 4.16969C14.6435 4.35092 14.7172 4.5287 14.8454 4.65686C14.9736 4.78503 15.1513 4.85876 15.3326 4.85876C15.5138 4.85876 15.6916 4.78503 15.8197 4.65686C15.9479 4.5287 16.0216 4.35092 16.0216 4.16969C16.0216 3.98847 15.9479 3.81069 15.8197 3.68252Z" fill="#00AAA1" stroke="#00AAA1" stroke-width="0.148712"/>
<path d="M20.7762 9.54716H17.951C17.5706 9.54716 17.2619 9.85587 17.2619 10.2362C17.2619 10.6166 17.5706 10.9253 17.951 10.9253H20.7762C21.1565 10.9253 21.4652 10.6166 21.4652 10.2362C21.4652 9.85587 21.1565 9.54716 20.7762 9.54716Z" fill="#00AAA1" stroke="#00AAA1" stroke-width="0.148712"/>
<path d="M26.4106 9.54716H23.591C23.2106 9.54716 22.9019 9.85587 22.9019 10.2362C22.9019 10.6166 23.2106 10.9253 23.591 10.9253H26.4106C26.791 10.9253 27.0997 10.6166 27.0997 10.2362C27.0997 9.85587 26.791 9.54716 26.4106 9.54716Z" fill="#00AAA1" stroke="#00AAA1" stroke-width="0.148712"/>
<path d="M26.4106 16.1601C26.4106 16.1601 26.4106 16.1601 26.4106 15.427C26.4106 15.427 26.0303 15.427 25.7216 15.7357C25.0325 16.4247 25.7216 15.7357 26.1019 16.0444C26.791 16.7334 26.791 16.0444 26.1019 16.0444C26.1019 16.0444 26.1019 16.0444 26.1019 16.7775C26.4823 17.4666 25.7932 17.4666 25.4129 16.7775C51.5119 32.2463 51.2039 31.9376 50.8235 31.9376L26.4106 16.1601Z" fill="#00AAA1"/>
<path d="M26.1019 16.0444C25.7216 15.7357 25.0325 16.4247 25.7216 15.7357C26.0303 15.427 26.4106 15.427 26.4106 15.427C26.4106 16.1601 26.4106 16.1601 26.4106 16.1601L50.8235 31.9376C51.2039 31.9376 51.5119 32.2463 25.4129 16.7775C25.7932 17.4666 26.4823 17.4666 26.1019 16.7775C26.1019 16.0444 26.1019 16.0444 26.1019 16.0444ZM26.1019 16.0444C26.791 16.0444 26.791 16.7334 26.1019 16.0444Z" stroke="#00AAA1" stroke-width="0.148712"/>
<path d="M23.1879 16.1622C23.1879 16.1622 23.1879 16.1622 23.1879 13.4989C23.1893 13.4989 22.8075 13.4989 22.4988 13.8076C21.8104 14.4974 22.4988 13.8076 22.8792 14.1163C23.5676 14.8054 23.5676 14.1163 22.8792 14.1163C22.8792 14.1163 22.8799 14.1163 22.8792 16.7796C22.8778 16.7796 23.2596 17.4686 22.5705 17.4679C21.8807 17.4679 45.4474 32.9381 45.1387 32.6301" fill="#00AAA1"/>
<path d="M23.1879 16.1622C23.1879 16.1622 23.1879 16.1622 23.1879 13.4989C23.1893 13.4989 22.8075 13.4989 22.4988 13.8076C21.8104 14.4974 22.4988 13.8076 22.8792 14.1163M22.8792 14.1163C23.5676 14.1163 23.5676 14.8054 22.8792 14.1163ZM22.8792 14.1163C22.8792 14.1163 22.8799 14.1163 22.8792 16.7796C22.8778 16.7796 23.2596 17.4686 22.5705 17.4679C21.8807 17.4679 45.4474 32.9381 45.1387 32.6301" stroke="#00AAA1" stroke-width="0.148712"/>
<path d="M23.9458 12.8547H21.6423C21.2619 12.8547 20.9532 13.1634 20.9532 13.5437C20.9532 13.9241 21.2619 14.2328 21.6423 14.2328H23.9458C24.3262 14.2328 24.6349 13.9241 24.6349 13.5437C24.6349 13.1634 24.3262 12.8547 23.9458 12.8547Z" fill="#00AAA1" stroke="#00AAA1" stroke-width="0.148712"/>
<path d="M26.8978 13.0566C26.7689 12.9284 26.5918 12.8547 26.4106 12.8547C26.2287 12.8547 26.0516 12.9284 25.9228 13.0566C25.7946 13.1847 25.7216 13.3625 25.7216 13.5437C25.7216 13.725 25.7946 13.9027 25.9228 14.0309C26.0516 14.1598 26.2287 14.2328 26.4106 14.2328C26.5918 14.2328 26.7689 14.1598 26.8978 14.0309C27.026 13.9027 27.0997 13.725 27.0997 13.5437C27.0997 13.3625 27.026 13.1847 26.8978 13.0566Z" fill="#00AAA1" stroke="#00AAA1" stroke-width="0.148712"/>
<path d="M27.2582 35.1039C27.13 34.9757 26.9522 34.902 26.771 34.902C26.5898 34.902 26.412 34.9757 26.2838 35.1039C26.1557 35.232 26.0819 35.4098 26.0819 35.591C26.0819 35.7723 26.1557 35.95 26.2838 36.0782C26.412 36.2064 26.5898 36.2801 26.771 36.2801C26.9522 36.2801 27.13 36.2064 27.2582 36.0782C27.3863 35.95 27.4601 35.7723 27.4601 35.591C27.4601 35.4098 27.3863 35.232 27.2582 35.1039Z" fill="#00AAA1" stroke="#00AAA1" stroke-width="0.148712"/>
<path d="M32.473 20.7417H30.6298V3.89407C30.6298 2.2982 29.3316 1 27.7357 1H9.5444C7.94853 1 6.65033 2.2982 6.65033 3.89407V12.3055C3.35522 13.5244 1 16.6983 1 20.4116C1 25.1751 4.8753 29.0511 9.63949 29.0511C12.9374 29.0511 15.8087 27.1934 17.264 24.4702C17.2633 24.4964 17.2619 24.5226 17.2619 24.5488V32.473C17.2619 34.5726 18.9701 36.2801 21.069 36.2801H24.289C24.6694 36.2801 24.9781 35.9714 24.9781 35.591C24.9781 35.2107 24.6694 34.902 24.289 34.902H21.069C19.7295 34.902 18.6401 33.8126 18.6401 32.473V24.5488C18.6401 23.2092 19.7295 22.1198 21.069 22.1198H22.2232C22.6036 22.1198 22.9123 21.8111 22.9123 21.4308V20.6597L24.5488 21.9689C24.6707 22.0668 24.823 22.1198 24.9794 22.1198H32.473C33.8126 22.1198 34.902 23.2092 34.902 24.5488V32.473C34.902 33.8126 33.8126 34.902 32.473 34.902H29.6685C29.2882 34.902 28.9795 35.2107 28.9795 35.591C28.9795 35.9714 29.2882 36.2801 29.6685 36.2801H32.473C34.5726 36.2801 36.2801 34.5726 36.2801 32.473V24.5488C36.2801 22.4499 34.5726 20.7417 32.473 20.7417ZM16.1401 16.1305C15.9244 16.3462 15.8762 16.679 16.0223 16.947C16.597 18.0034 16.9009 19.201 16.9009 20.4116C16.9009 24.4151 13.6436 27.673 9.63949 27.673C5.63534 27.673 2.37813 24.4151 2.37813 20.4116C2.37813 16.4082 5.63534 13.1503 9.63949 13.1503C11.3222 13.1503 12.9622 13.7387 14.2576 14.8082C14.3809 14.9101 14.536 14.966 14.6965 14.966H17.3053L16.1401 16.1305ZM29.2516 20.7417H25.2213L22.6539 18.6876C22.4471 18.5222 22.1639 18.4898 21.9248 18.6049C21.6864 18.72 21.5341 18.9612 21.5341 19.2258V20.7417H21.069C19.868 20.7417 18.7965 21.3012 18.0978 22.1722C18.2163 21.6037 18.2783 21.0146 18.2783 20.4116C18.2783 19.1458 17.9992 17.891 17.4666 16.7527L19.4552 14.7641C19.6523 14.567 19.7115 14.2707 19.6047 14.013C19.4979 13.7553 19.2471 13.5878 18.968 13.5878H14.9377C13.4287 12.4157 11.5572 11.7728 9.63949 11.7728C9.08893 11.7728 8.55077 11.8252 8.02846 11.9237V7.33939H29.2516V20.7417ZM29.2516 5.96126H8.02846V3.89407C8.02846 3.05824 8.70857 2.37813 9.5444 2.37813H27.7357C28.5715 2.37813 29.2516 3.05824 29.2516 3.89407V5.96126Z" fill="#00AAA1" stroke="#00AAA1" stroke-width="0.148712"/>
<path d="M22.3624 26.3059C21.982 26.3059 21.6733 26.6146 21.6733 26.995V27.8219H20.8519V26.995C20.8519 26.6146 20.5432 26.3059 20.1629 26.3059C19.7825 26.3059 19.4738 26.6146 19.4738 26.995V30.0269C19.4738 30.4072 19.7825 30.7159 20.1629 30.7159C20.5432 30.7159 20.8519 30.4072 20.8519 30.0269V29.2H21.6733V30.0269C21.6733 30.4072 21.982 30.7159 22.3624 30.7159C22.7427 30.7159 23.0514 30.4072 23.0514 30.0269V26.995C23.0514 26.6146 22.7434 26.3059 22.3624 26.3059Z" fill="#00AAA1" stroke="#00AAA1" stroke-width="0.148712"/>
<path d="M33.6885 29.3378H33.0759V26.995C33.0759 26.6146 32.7672 26.3059 32.3869 26.3059C32.0065 26.3059 31.6978 26.6146 31.6978 26.995V30.0269C31.6978 30.4072 32.0065 30.7159 32.3869 30.7159H33.6885C34.0689 30.7159 34.3776 30.4072 34.3776 30.0269C34.3776 29.6465 34.0696 29.3378 33.6885 29.3378Z" fill="#00AAA1" stroke="#00AAA1" stroke-width="0.148712"/>
<path d="M26.0868 26.3059H24.289C23.9086 26.3059 23.5999 26.6146 23.5999 26.995C23.5999 27.3753 23.9086 27.684 24.289 27.684H24.4992V30.0269C24.4992 30.4072 24.8079 30.7159 25.1882 30.7159C25.5686 30.7159 25.8773 30.4072 25.8773 30.0269V27.684H26.0875C26.4678 27.684 26.7765 27.3753 26.7765 26.995C26.7758 26.6146 26.4671 26.3059 26.0868 26.3059Z" fill="#00AAA1" stroke="#00AAA1" stroke-width="0.148712"/>
<path d="M30.5347 26.3583C30.2777 26.2522 29.9807 26.3107 29.7836 26.5078L29.1125 27.1789L28.4413 26.5078C28.2442 26.3107 27.9479 26.2522 27.6902 26.3583C27.4325 26.4651 27.2651 26.7159 27.2651 26.995V30.0268C27.2651 30.4072 27.5738 30.7159 27.9541 30.7159C28.3345 30.7159 28.6432 30.4072 28.6432 30.0268V28.6577C28.7707 28.7762 28.9381 28.8423 29.1125 28.8423C29.2868 28.8423 29.4549 28.7762 29.5817 28.6577V30.0268C29.5817 30.4072 29.8904 30.7159 30.2708 30.7159C30.6511 30.7159 30.9598 30.4072 30.9598 30.0268V26.995C30.9605 26.7166 30.7924 26.4651 30.5347 26.3583Z" fill="#00AAA1" stroke="#00AAA1" stroke-width="0.148712"/>
<path d="M6.87081 21.2192C6.42567 21.6644 5.70147 21.6644 5.25633 21.2192C5.04065 21.0035 4.92214 20.7169 4.92214 20.4116C4.92214 20.1064 5.04065 19.8197 5.25633 19.604C5.47201 19.3884 5.75866 19.2699 6.06392 19.2699C6.36917 19.2699 6.65582 19.3884 6.8715 19.604C7.14092 19.8728 7.5771 19.8735 7.84584 19.604C8.11526 19.3353 8.11526 18.8984 7.84584 18.6297C7.36969 18.1536 6.73713 17.8917 6.06392 17.8917C5.3907 17.8917 4.75814 18.1536 4.28199 18.6297C3.80585 19.1059 3.54401 19.7384 3.54401 20.4116C3.54401 21.0848 3.80585 21.7174 4.28199 22.1936C4.7733 22.6849 5.41826 22.9302 6.06392 22.9302C6.70957 22.9302 7.35453 22.6849 7.84584 22.1936C8.11526 21.9248 8.11526 21.488 7.84584 21.2192C7.57641 20.9498 7.14023 20.9498 6.87081 21.2192Z" fill="#00AAA1" stroke="#00AAA1" stroke-width="0.148712"/>
<path d="M10.0268 19.7226C9.90205 19.7226 9.80076 19.6213 9.80076 19.4966C9.80076 19.3718 9.90205 19.2706 10.0275 19.2706H10.9432C11.3236 19.2706 11.6323 18.9619 11.6323 18.5815C11.6323 18.2011 11.3236 17.8924 10.9432 17.8924H10.0282C9.1434 17.8924 8.42401 18.6125 8.42401 19.4973C8.42401 20.382 9.14408 21.1021 10.0288 21.1021C10.1536 21.1021 10.2555 21.2034 10.2555 21.3288C10.2555 21.4535 10.1543 21.5555 10.0295 21.5555H9.11445C8.73409 21.5555 8.42539 21.8642 8.42539 22.2446C8.42539 22.6249 8.73409 22.9336 9.11445 22.9336H10.0302C10.915 22.9336 11.6351 22.2142 11.6351 21.3295C11.6316 20.442 10.9115 19.7226 10.0268 19.7226Z" fill="#00AAA1" stroke="#00AAA1" stroke-width="0.148712"/>
<path d="M13.7257 19.7226C13.601 19.7226 13.4997 19.6213 13.4997 19.4966C13.4997 19.3718 13.601 19.2706 13.7264 19.2706H14.6421C15.0225 19.2706 15.3312 18.9619 15.3312 18.5815C15.3312 18.2011 15.0225 17.8924 14.6421 17.8924H13.7271C12.8423 17.8924 12.1229 18.6125 12.1229 19.4973C12.1229 20.382 12.843 21.1021 13.7277 21.1021C13.8525 21.1021 13.9545 21.2034 13.9545 21.3288C13.9545 21.4535 13.8532 21.5555 13.7284 21.5555H12.8099C12.4296 21.5555 12.1208 21.8642 12.1208 22.2446C12.1208 22.6249 12.4296 22.9336 12.8099 22.9336H13.7257C14.6104 22.9336 15.3305 22.2142 15.3305 21.3295C15.3298 20.442 14.6098 19.7226 13.7257 19.7226Z" fill="#00AAA1" stroke="#00AAA1" stroke-width="0.148712"/>
</svg>
